<svg id="visual" viewBox="0 0 2060 540" width="2060" height="540" xmlns="http://www.w3.org/2000/svg" xmlns:xlink="http://www.w3.org/1999/xlink" version="1.1"><rect x="0" y="0" width="2060" height="540" fill="#001220"></rect><path d="M0 224L57.2 233.8C114.3 243.7 228.7 263.3 343.2 263.8C457.7 264.3 572.3 245.7 686.8 249.8C801.3 254 915.7 281 1030 287.3C1144.3 293.7 1258.7 279.3 1373.2 270C1487.7 260.7 1602.3 256.3 1716.8 251.2C1831.3 246 1945.7 240 2002.8 237L2060 234L2060 541L2002.8 541C1945.7 541 1831.3 541 1716.8 541C1602.3 541 1487.7 541 1373.2 541C1258.7 541 1144.3 541 1030 541C915.7 541 801.3 541 686.8 541C572.3 541 457.7 541 343.2 541C228.7 541 114.3 541 57.2 541L0 541Z" fill="#c62368"></path><path d="M0 273L57.2 280.3C114.3 287.7 228.7 302.3 343.2 307C457.7 311.7 572.3 306.3 686.8 312.2C801.3 318 915.7 335 1030 339.2C1144.3 343.3 1258.7 334.7 1373.2 326.7C1487.7 318.7 1602.3 311.3 1716.8 303.8C1831.3 296.3 1945.7 288.7 2002.8 284.8L2060 281L2060 541L2002.8 541C1945.7 541 1831.3 541 1716.8 541C1602.3 541 1487.7 541 1373.2 541C1258.7 541 1144.3 541 1030 541C915.7 541 801.3 541 686.8 541C572.3 541 457.7 541 343.2 541C228.7 541 114.3 541 57.2 541L0 541Z" fill="#d03267"></path><path d="M0 303L57.2 318C114.3 333 228.7 363 343.2 374C457.7 385 572.3 377 686.8 376C801.3 375 915.7 381 1030 382.8C1144.3 384.7 1258.7 382.3 1373.2 374C1487.7 365.7 1602.3 351.3 1716.8 351.8C1831.3 352.3 1945.7 367.7 2002.8 375.3L2060 383L2060 541L2002.8 541C1945.7 541 1831.3 541 1716.8 541C1602.3 541 1487.7 541 1373.2 541C1258.7 541 1144.3 541 1030 541C915.7 541 801.3 541 686.8 541C572.3 541 457.7 541 343.2 541C228.7 541 114.3 541 57.2 541L0 541Z" fill="#da3f67"></path><path d="M0 374L57.2 378.3C114.3 382.7 228.7 391.3 343.2 390.3C457.7 389.3 572.3 378.7 686.8 370.7C801.3 362.7 915.7 357.3 1030 355.5C1144.3 353.7 1258.7 355.3 1373.2 356.3C1487.7 357.3 1602.3 357.7 1716.8 366.2C1831.3 374.7 1945.7 391.3 2002.8 399.7L2060 408L2060 541L2002.8 541C1945.7 541 1831.3 541 1716.8 541C1602.3 541 1487.7 541 1373.2 541C1258.7 541 1144.3 541 1030 541C915.7 541 801.3 541 686.8 541C572.3 541 457.7 541 343.2 541C228.7 541 114.3 541 57.2 541L0 541Z" fill="#e34c67"></path><path d="M0 443L57.2 440.8C114.3 438.7 228.7 434.3 343.2 426.5C457.7 418.7 572.3 407.3 686.8 401.7C801.3 396 915.7 396 1030 395.7C1144.3 395.3 1258.7 394.7 1373.2 404C1487.7 413.3 1602.3 432.7 1716.8 435.7C1831.3 438.7 1945.7 425.3 2002.8 418.7L2060 412L2060 541L2002.8 541C1945.7 541 1831.3 541 1716.8 541C1602.3 541 1487.7 541 1373.2 541C1258.7 541 1144.3 541 1030 541C915.7 541 801.3 541 686.8 541C572.3 541 457.7 541 343.2 541C228.7 541 114.3 541 57.2 541L0 541Z" fill="#eb5967"></path><path d="M0 447L57.2 445.5C114.3 444 228.7 441 343.2 443.8C457.7 446.7 572.3 455.3 686.8 458.8C801.3 462.3 915.7 460.7 1030 456.3C1144.3 452 1258.7 445 1373.2 445.5C1487.7 446 1602.3 454 1716.8 454.5C1831.3 455 1945.7 448 2002.8 444.5L2060 441L2060 541L2002.8 541C1945.7 541 1831.3 541 1716.8 541C1602.3 541 1487.7 541 1373.2 541C1258.7 541 1144.3 541 1030 541C915.7 541 801.3 541 686.8 541C572.3 541 457.7 541 343.2 541C228.7 541 114.3 541 57.2 541L0 541Z" fill="#f36567"></path><path d="M0 511L57.2 511.2C114.3 511.3 228.7 511.7 343.2 509.5C457.7 507.3 572.3 502.7 686.8 500C801.3 497.3 915.7 496.7 1030 497.2C1144.3 497.7 1258.7 499.3 1373.2 499.5C1487.7 499.7 1602.3 498.3 1716.8 499.3C1831.3 500.3 1945.7 503.7 2002.8 505.3L2060 507L2060 541L2002.8 541C1945.7 541 1831.3 541 1716.8 541C1602.3 541 1487.7 541 1373.2 541C1258.7 541 1144.3 541 1030 541C915.7 541 801.3 541 686.8 541C572.3 541 457.7 541 343.2 541C228.7 541 114.3 541 57.2 541L0 541Z" fill="#fa7268"></path></svg>